<?xml version="1.0" encoding="UTF-8"?>
<svg viewBox="0 0 256 256" xmlns="http://www.w3.org/2000/svg" xmlns:xlink="http://www.w3.org/1999/xlink">
 <defs>
  <filter id="ai">
   <feGaussianBlur stdDeviation="1.88201"/>
  </filter>
  <filter id="ah">
   <feGaussianBlur stdDeviation=".55024"/>
  </filter>
  <filter id="ag">
   <feGaussianBlur stdDeviation=".50721"/>
  </filter>
  <filter id="d">
   <feGaussianBlur stdDeviation=".21723"/>
  </filter>
  <filter id="s">
   <feGaussianBlur stdDeviation=".21987"/>
  </filter>
  <filter id="aa"/>
  <filter id="af" x="-.24091" y="-.0883" width="1.4818" height="1.1766">
   <feGaussianBlur stdDeviation="1.03475"/>
  </filter>
  <filter id="ae" x="-.09403" y="-.1847" width="1.1881" height="1.3694">
   <feGaussianBlur stdDeviation=".76184"/>
  </filter>
  <filter id="ad" x="-.03163" y="-.12853" width="1.0633" height="1.257">
   <feGaussianBlur stdDeviation=".63374"/>
  </filter>
  <filter id="ac" x="-.06474" y="-.16077" width="1.1295" height="1.3215">
   <feGaussianBlur stdDeviation=".81065"/>
  </filter>
  <filter id="ab" x="-.08984" y="-.49991" width="1.1797" height="1.9998">
   <feGaussianBlur stdDeviation=".7279"/>
  </filter>
  <filter id="z" x="-.14344" y="-.18486" width="1.2869" height="1.3697">
   <feGaussianBlur stdDeviation=".44244"/>
  </filter>
  <filter id="y" x="-.15203" y="-.04103" width="1.3041" height="1.082">
   <feGaussianBlur stdDeviation=".45025"/>
  </filter>
  <filter id="x" x="-.05992" y="-.20091" width="1.1198" height="1.4018">
   <feGaussianBlur stdDeviation=".37735"/>
  </filter>
  <filter id="w" x="-.07242" y="-.14647" width="1.1448" height="1.2929">
   <feGaussianBlur stdDeviation=".36141"/>
  </filter>
  <filter id="v" x="-.06902" y="-.12022" width="1.138" height="1.2404">
   <feGaussianBlur stdDeviation=".34314"/>
  </filter>
  <filter id="u" x="-.05535" y="-.16691" width="1.1107" height="1.3338">
   <feGaussianBlur stdDeviation=".21723"/>
  </filter>
  <filter id="t" x="-.22283" y="-.12669" width="1.4457" height="1.2534">
   <feGaussianBlur stdDeviation=".6151"/>
  </filter>
  <linearGradient id="b">
   <stop stop-color="#9f0000" offset="0"/>
   <stop stop-color="#d40000" offset="1"/>
  </linearGradient>
  <linearGradient id="c">
   <stop stop-color="#008ae6" offset="0"/>
   <stop stop-color="#73c7ff" offset="1"/>
  </linearGradient>
  <linearGradient id="a">
   <stop stop-color="#d19370" offset="0"/>
   <stop stop-color="#deb198" offset=".5"/>
   <stop stop-color="#d19370" offset="1"/>
  </linearGradient>
  <linearGradient id="k" x1="-126.34" x2="-67.292" y1="524.68" y2="563.92" gradientUnits="userSpaceOnUse">
   <stop stop-color="#800000" offset="0"/>
   <stop stop-color="#a20000" offset=".5"/>
   <stop stop-color="#800000" offset="1"/>
  </linearGradient>
  <linearGradient id="j" x1="-143.7" x2="-89.107" y1="461.7" y2="433.74" gradientUnits="userSpaceOnUse">
   <stop stop-color="#1a1a1a" offset="0"/>
   <stop stop-color="#373737" offset=".5"/>
   <stop stop-color="#222" offset="1"/>
  </linearGradient>
  <linearGradient id="i" x1="-130.93" x2="-57.039" y1="447.61" y2="533.16" gradientUnits="userSpaceOnUse">
   <stop offset="0"/>
   <stop stop-color="#464646" offset="1"/>
  </linearGradient>
  <linearGradient id="r" x1="-191.51" x2="-175.47" y1="573.52" y2="605.02" gradientUnits="userSpaceOnUse" xlink:href="#a"/>
  <linearGradient id="q" x1="-235.84" x2="-174.38" y1="557.11" y2="582.61" gradientUnits="userSpaceOnUse" xlink:href="#a"/>
  <linearGradient id="p" x1="-147.83" x2="-114.93" y1="574.09" y2="583.09" gradientUnits="userSpaceOnUse" xlink:href="#a"/>
  <linearGradient id="o" x1="-164.34" x2="-177.45" y1="615.84" y2="585.84" gradientUnits="userSpaceOnUse" xlink:href="#a"/>
  <linearGradient id="n" x1="-66.133" x2="-38.32" y1="548.64" y2="550.64" gradientUnits="userSpaceOnUse" xlink:href="#a"/>
  <linearGradient id="m" x1="-83.353" x2="-26.812" y1="504" y2="436.5" gradientUnits="userSpaceOnUse" xlink:href="#a"/>
  <linearGradient id="l" x1="-126.55" x2="-73.026" y1="463.72" y2="513.78" gradientUnits="userSpaceOnUse" xlink:href="#a"/>
  <linearGradient id="h" x1="-93.719" x2="-100.03" y1="461.46" y2="458.15" gradientUnits="userSpaceOnUse" xlink:href="#c"/>
  <linearGradient id="g" x1="-108.38" x2="-116.15" y1="474.4" y2="469.27" gradientUnits="userSpaceOnUse" xlink:href="#c"/>
  <linearGradient id="f" x1="-89.719" x2="-91.719" y1="483.15" y2="479.65" gradientUnits="userSpaceOnUse" xlink:href="#b"/>
  <linearGradient id="e" x1="-94.344" x2="-86.969" y1="474.84" y2="480.9" gradientUnits="userSpaceOnUse" xlink:href="#b"/>
 </defs>
 <g transform="translate(246.97 -409.02)">
  <path d="m-131.01 434.5s-4.773 32.88-2.4749 40.659 21.036 30.759 21.036 30.759 55.331-44.548 54.978-45.608-63.286-44.371-73.539-25.809z" fill="url(#i)"/>
  <path d="m-176.04 652.91c9.2436-0.49229 15.472-6.8593 23.958-6.4766 4.4148-0.53085 9.276 1.5821 13.596 1.263-0.54836-10.245-10.141-13.613-6.1563-24.16 19.198 0.24954 42.668-2.234 55.625-9.5242 5.8888 1.5052 10.701 6.9872 16.654 8.2731 5.2296 1.485 7.3608 5.959 12.4 7.9048 9.7501 3.5846 25.475 4.1184 35.646 3.5115 3.278 1.2058 6.4362-1.5696 0.8817-5.4498-15.1-3.5185-30.869-3.1402-45.924-7.3819-3.4222-1.9048-8.1006-2.8638-9.3075-7.1833 0.84923-11.396-9.2188-22.904-10.953-26.627-35.816-3.5261-69.977-2.0412-105.21 3.2473-15.893 2.1204-47.08 12.048-33.219 33.323 7.2059 8.606 19.938 1.5029 29.073 0.26047 7.4675-0.62589 33.632-8.0474 37.669-1.1837 0.1783 3.9704-3.9306 11.279-6.7172 14.865-4.5382 7.8065-11.999 5.8369-19.952 9.9538 0.28845 6.8425 6.7574 6.7615 11.933 5.3848z" fill-opacity=".59091" filter="url(#ai)"/>
  <path d="m-96.45 485.13c3.2978-2.4917 6.4788-5.1 9.1924-8.1759 0.25332 0.46441-5.6563 7.6172-9.1924 8.1759z"/>
  <path d="m-235.84 606.86c0-1.2374 11.314-26.163 14.142-30.759s32.527-48.967 33.764-51.088 9.7227-14.849 11.137-17.501 2.1213-8.3085 2.1213-9.0156-0.70711-2.2981 1.0607-2.1213 1.2374 2.8284 4.773 4.773 9.0156 4.0659 7.7782 7.4246-7.6014 7.0711-7.4246 9.7227 2.1213 6.1872 1.9445 9.3692c1.7759 9.3674-6.7763 3.6011-12.021 8.3085-3.3107 4.932-10.619 29.734-10.43 36.946 0.10132 3.8595-39.598 34.295-46.846 33.941z" fill="url(#q)"/>
  <path d="m-68.781 465.44s9.1924-2.8284 13.965-4.0659 13.965-1.591 15.38 2.2981-9.6329 73.496-15.733 80.08c-14.807 15.981-74.776 2.7301-57.629-31.997 1.4415-2.9194 2.3926-19.887 9.3178-28.468 7.4956-9.2882 15.681-18.858 24.78-17.066 2.9186 0.57489 7.8974-0.41738 9.9198-0.78097z" fill="url(#m)"/>
  <path d="m-147.09 587.77s-38.891 23.158-41.366 24.395-12.905-1.591-13.612 0-1.7678 5.6568 1.2374 6.5407 66.265 1.3107 70.507 0.25-7.2212-31.893-16.767-31.186z" fill="url(#o)"/>
  <path d="m-152.22 546.05c-2.995 1.4975-20.015 13.366-22.981 15.733-17.577 10.855-28.261 23.049-43.664 32.35-5.6568 2.8284-16.263 9.3692-16.971 12.728-0.96618 6.7785 3.3337 18.855 11.49 18.915 4.5767 0.14752 14.514-1.5008 19.269-3.8891 9.3165-4.6793 52.679-28.107 57.276-33.764 1.8147-2.2334 0-38.007-4.4194-42.073z" fill="url(#r)"/>
  <path d="m-198.72 618.77c15.148-8.7104 44.314-25.268 48.689-31.268 1.125 1.625 1.7929 2.2929 1.7929 2.2929s-41.107 25.85-50.482 28.975z" fill="#333" filter="url(#ah)"/>
  <path d="m-103.54 485.58c-5.5198 19.418-3.3637 19.727-4.7803 29.061 0.11764 5.6764 0.46213 12.029 2.4268 19.232 0.84307 3.091 8.5179 7.1076 11.97 5.6036 10.062-4.3841 14.481-18.635 21.298-27.384 2.9001-3.7216 0.0529-25.719 3.8536-38.899l4.5555-7.0962c-3.9008 18.144-1.807 25.31-0.26256 34.896 0.86067 5.3421 3.2079 8.689 7.4822 8.1161l5.25-1 3.5 9-11.97 54.013c-10.604 7.1625-12.561 14.325-18.78 21.487-3.7107 6.0712-7.979 12.829-13.573 17.487-10.714 9.9849-24.198 8.8812-37.177 10.263-20.276-22.493-26.77-46.104-29.75-70 8.8005-6.1255 12.622-12.749 26.402-18.377l8.5984-19.373 11.25-15.25 5.625-14.375 4.0821 2.5947z" fill="url(#k)"/>
  <path d="m-115.62 535.77s3.1553 4 6.6553 5.25-6.4205-0.17678-6.5455-0.92678 0.26517-2.4482-0.10983-4.3232z" fill="#48403b" filter="url(#z)"/>
  <path d="m-124.82 457.66s1.591 9.8995 4.773 12.905c4.6537 6.9218 10.723 13.676 19.092 16.087 4.5962 0.53033 10.783 4.773 13.435 4.0659s5.1265 0.53033 6.8943-3.3588 4.7113-11.393 4.5962-17.147c-0.17678-8.8388-0.35355-12.728-8.3085-22.804s-19.269-19.622-25.809-18.562-20.683 12.728-14.672 28.815z" fill="url(#l)"/>
  <path d="m-101 461.43c0.50236-2.2606 1.4987-4.8964 5.441-6.5354 0.22042-0.0916-0.18589-0.71075 0.9279-1.7813-0.12088 1.4997 0.0241 1.314 0.13102 1.3828 0.32889-0.34205 0.84066-1.8685 1.1251-1.941-0.20978 0.8635-0.43897 1.7124 0 3.0625l-7.625 5.8125z"/>
  <path d="m-101.13 464.2c-0.47816-6.8795 4.8039-8.3661 7.7782-8.6621 0.67616 4.0351 0 11.049-7.7782 8.6621z" fill="#fff"/>
  <path d="m-109.91186,469.63451c-1.77885-.0105-3.92312.28463-5.82505,2.95648-.10633.14939-.50045-.26079-1.49272.39016 1.14375.16611.97988.24283 1.01314.3347-.31242.18778-1.5431.3099-1.64608.51042 .68254-.009 1.3575-.0358 2.29342.52396l5.6573-4.71568z"/>
  <path d="m-107.32 469.68c-5.1321-1.6747-6.7102 1.7277-8.6621 4.5962 2.6374 1.5915 9.5464 1.9628 8.6621-4.5962z" fill="#fff"/>
  <path d="m-110.69 469.3c-1.331 0.22565-2.3305 0.95881-3.1562 1.9062-0.187 0.71147-0.1003 1.5166 0.25 2.2812 0.38228 0.83446 1.0136 1.4486 1.75 1.75 1.2244-0.0374 2.4121-0.38487 3.2812-1.1562 0.43516-0.82833 0.4887-1.9077 0.0313-2.9062-0.44619-0.97398-1.2705-1.6465-2.1562-1.875z" fill="url(#g)" fill-rule="evenodd"/>
  <path d="m-97.657 456.8c-1.2364 0.70463-2.3421 1.7883-2.9688 3.4062 0.0468 0.83899 0.36066 1.6903 0.96875 2.4375 0.9335 1.147 2.2895 1.7096 3.5312 1.5938 1.5628-0.71498 2.3945-2.2335 2.75-3.9375-0.13231-0.65842-0.46362-1.324-0.9375-1.9062-0.88647-1.0892-2.1544-1.6388-3.3438-1.5938z" fill="url(#h)" fill-rule="evenodd"/>
  <path d="m-82.175 537.72c6.417 1.3082 12.802 3.1612 19.445 0.61872l-0.17677 1.8562c1.9995 1.4996-15.135 1.841-19.269-2.4749z" fill="#48403b" filter="url(#ab)"/>
  <path d="m-40.674 462.25c3.5237 0.97353 3.5555 3.7103 6.2301 7.8033 3.9357 6.023 1.5052 38.361-2.3839 45.255s-4.0193 21.602-7.0711 26.922c1.2653 9.4799-1.8891 51.874-2.4194 55.233s-2.7981 19.769-1.7374 21.536 5.614 3.2338 8.4424 3.4105 9.0156 0.35356 13.258 1.7678 12.551 5.1265 13.258 7.2478 1.2374 2.8284 0.17677 3.0052-2.6516 1.7678-5.3033-0.53033-0.35355 1.2374-0.35355 1.2374-2.2981 0.17677-4.2426 0-13.081-2.8284-14.319-2.8284 1.0607 1.7678-0.17678 2.2981-15.026-1.0607-16.971-1.9446-4.9801-1.557-5.9586-5.1051c-0.61818-2.2414-1.6428-49.342-1.8196-53.938s-3.8891-21.213-4.0659-23.511 5.3764-14.147 5.6568-19.092c0.32323-5.6997 3.7123-34.295 3.0052-38.007s-4.5284-36.65 16.794-30.759z" fill="url(#n)"/>
  <path d="m-96.719 485.15c1.0791-1.6859 2.4249-2.5926 4.5-3.875 1.0256-2.0991 3.3362-3.3939 5.25-4.625 0 0-5.7184 7.3813-9.75 8.5z" fill="url(#e)"/>
  <path d="m-96.406 485.13c2.8436-2.0207 6.1613-5.3224 9.325-8.2643-2.42 3.3722-4.7854 7.8875-9.325 8.2643z" filter="url(#s)"/>
  <path d="m-96.406 485.13c3.2144-1.65 6.4973-4.9864 9.325-8.2643-0.33882 5.156-3.6239 8.883-9.325 8.2643z" fill="url(#f)"/>
  <path d="m-105.72 466.77 6.625 10.625s-1.625 1.5-2.375 0.875-1.25-4.375-4.25-11.5z" fill="#48403b" filter="url(#t)"/>
  <path d="m-57.719 490.15s-0.21615 16.614-1.4177 31.588c-0.91682 11.425-2.7222 18.183-5.5383 23.125 3.3911-8.3742 4.581-18.963 4.831-22.713s0.625-23.75 2.125-32z" fill="#48403b" filter="url(#aa)"/>
  <path d="m-86.969 511.65s1.25 13.375-0.125 17.75-7.5 10.375-7.5 10.375 9.25-3.375 10.125-5.625-1.6161-18.662-2.5-22.5z" fill="#48403b" filter="url(#af)"/>
  <path d="m-103.92 486.1c4.6188 2.3413 10.068 3.022 15.114 4.5078 0 0-12.816-0.44194-15.114-4.5078z" fill="#48403b" filter="url(#x)"/>
  <path d="m-82.529 489.28c2.2822-3.3693 7.6734-11.845 6.0988-26.34 1.2375 2.3276 2.9829 16.344-6.0988 26.34z" fill="#48403b" filter="url(#y)"/>
  <path d="m-49.118 626.63 11.049 5.922 0.92808-0.48614s-10.607-4.8172-11.977-5.4359z" fill="#333" filter="url(#w)"/>
  <path d="m-30.468 627.08 11.225 6.8501 0.70711-0.30936s-10.209-5.8778-11.932-6.5407z" fill="#333" filter="url(#v)"/>
  <path d="m-227.4 600.74 38.184-27.754s-36.239 24.042-38.184 27.754z" fill="#333" filter="url(#ag)"/>
  <path transform="matrix(2.0789 0 0 2.0789 -404.66 336.84)" d="m142.13 65.214a0.92808 0.92808 0 1 1 -1.8562 0 0.92808 0.92808 0 1 1 1.8562 0z" fill-rule="evenodd"/>
  <path transform="matrix(2.5493 0 0 2.5493 -457.14 294.3)" d="m142.13 65.214a0.92808 0.92808 0 1 1 -1.8562 0 0.92808 0.92808 0 1 1 1.8562 0z" fill-rule="evenodd"/>
  <path transform="matrix(1.4762 0 0 2.0476 -307.28 326.8)" d="m142.13 65.214a0.92808 0.92808 0 1 1 -1.8562 0 0.92808 0.92808 0 1 1 1.8562 0z" fill="#fff" fill-rule="evenodd"/>
  <path transform="matrix(1.2702 0 0 1.7619 -291.73 357.01)" d="m142.13 65.214a0.92808 0.92808 0 1 1 -1.8562 0 0.92808 0.92808 0 1 1 1.8562 0z" fill="#fff" fill-rule="evenodd"/>
  <path d="m-132.07 510.16s0.17678 11.49-0.53033 25.633c-0.24623 4.9246-3.182 12.198-4.9498 18.208s-9.0156 33.764-10.607 38.007-10.253 29.168-11.844 33.588-4.5962 12.374-9.7227 14.319-21.567 4.5962-21.213 5.8336 3.7123 0.7071 3.7123 0.7071-7.955 3.3588-7.6014 4.4194 1.2374 1.591 1.2374 1.591l3.7123-1.2374s-3.3588 2.4749-2.8284 3.0052 4.5962 1.2374 6.5407 0.53033 10.253-5.1265 10.253-5.1265-5.3033 4.0659-5.8336 5.3033 3.182 1.4142 4.2426 0.53033 13.435-8.1317 15.733-9.7227 7.7782-3.5355 10.076-2.1213 5.6568 4.4194 8.4853 5.1265 8.6621 0.88389 8.6621 0.88389-6.0104-4.9498-7.955-7.0711-6.1872-12.021-4.4194-16.617 10.607-23.688 12.374-25.633 16.44-33.764 19.092-38.714c1.1597-2.1648-0.041-24.911 0.35355-29.168 0.2747-2.9645-16.832-21.199-16.971-22.274z" fill="url(#p)"/>
  <path d="m-127.29 423.89c-12.788 3.8135-12.74 28.066-13.081 39.244 2.3794 34.662 1.8132 69.304 47.023 66.645 2.6516-0.88389-22.451-15.733-23.158-20.153 3.4016-2.0858 7.0711-11.49 7.0711-11.49-17.018-12.958-17.795-24.893-20.329-40.835 2.0884 5.4541 2.7802 12.305 6.5407 16.087 5.1418-3.1964 6.5293-9.6706 9.8995-12.905-6.2538-6.4142-5.7884-10.141-7.7782-14.849 4.0216 3.0639 8.0672 6.2237 12.551 11.137 0 0 10.607-3.5355 11.314-7.4246-0.4343-3.5163-3.0052-7.6014-3.0052-7.6014 10.525 5.5296 25.827 21.775 34.509 33.627 3.8483-11.852 8.3835-15.365 19.149-14.752 0 0-54.542-65.015-80.705-36.73z" fill="url(#j)"/>
  <path d="m-123.33 580.19c8.8687 13.924 42.119 13.866 48.083 1.0607-9.6223 18.885-45.236 9.2721-48.083-1.0607z" fill="#333" filter="url(#ad)"/>
  <path d="m-119.8 570.46c1.9247 5.5756 16.874 13.482 29.168 11.844-7.1737 0.74431-19.376 0.50397-30.052-9.5459l0.88388-2.2981z" fill="#333" filter="url(#ac)"/>
  <path d="m-114.14 560.74c3.8189 6.2956 12.043 7.6355 19.445 9.8995-6.5391-2.9562-13.332-4.3917-19.445-9.8995z" fill="#333" filter="url(#ae)"/>
  <path d="m-116.72 509.65c-9.3398-9.199-10.138-16.12-15-24.125 5.0019 9.1092 9.8639 19.407 15.5 23.125l-0.5 1z"/>
  <path d="m-101.28 418.37c-9.8281 20.418-22.72 31.238-38.438 30.938-0.30573 3.3471-0.44227 6.5822-0.53125 9.4375 6.335-3.6582 12.695-7.3596 19.594-11.938-0.13859-0.38601-0.26939-0.75843-0.4375-1.1562l1 0.78125c9.4334-4.4857 18.626-11.003 27.094-24.844-3.6307-1.9627-4.6832-2.1234-8.2812-3.2188z" fill="#4d4d4d"/>
  <path d="m-178.5 651.89 8.0705-6.4751-9.8995 6.4966c0.76954-0.16703 1.3926-0.18764 1.829-0.0215z" fill="#333" filter="url(#d)"/>
  <path d="m-190.1 651.16 0.31612 0.0771 8.8321-5.7782s-8.0875 4.5078-9.1482 5.701z" fill="#333" filter="url(#d)"/>
  <path d="m-187.2 646.46 8.9493-3.1157s-7.5235 2.277-9.4199 3.0766c0.24894 0.14026 0.65528-0.0918 0.47055 0.0391z" fill="#333" filter="url(#u)"/>
 </g>
</svg>
